HIERARCHY
ROOT hip
{
	OFFSET 0.000000 0.000000 0.000000 
	CHANNELS 6 Xposition Yposition Zposition Xrotation Zrotation Yrotation
	JOINT abdomen
	{
		OFFSET 0.000000 3.402643 0.000000 
		CHANNELS 3 Xrotation Zrotation Yrotation
		JOINT chest
		{
			OFFSET 0.000000 8.438565 -0.680529 
			CHANNELS 3 Xrotation Zrotation Yrotation
			JOINT neck
			{
				OFFSET 0.000000 10.207942 -0.272212 
				CHANNELS 3 Xrotation Zrotation Yrotation
				JOINT head
				{
					OFFSET 0.000000 3.130431 0.000000 
					CHANNELS 3 Xrotation Zrotation Yrotation
					End Site
					{
						OFFSET 0.000000 3.130435 0.000000 
					}
				}
			}
			JOINT lCollar
			{
				OFFSET 3.470700 6.669187 -0.816635 
				CHANNELS 3 Yrotation Zrotation Xrotation
				JOINT lShldr
				{
					OFFSET 3.198488 0.000000 0.000000 
					CHANNELS 3 Zrotation Yrotation Xrotation
					JOINT lForeArm
					{
						OFFSET 10.139888 0.000000 0.000000 
						CHANNELS 3 Yrotation Zrotation Xrotation
						JOINT lHand
						{
							OFFSET 8.370511 0.000000 0.000000 
							CHANNELS 3 Zrotation Yrotation Xrotation
							End Site
							{
								OFFSET 4.083176 0.000000 0.000000 
							}
						}
					}
				}
			}
			JOINT rCollar
			{
				OFFSET -3.470700 6.669187 -0.816635 
				CHANNELS 3 Yrotation Zrotation Xrotation
				JOINT rShldr
				{
					OFFSET -3.198488 0.000000 0.000000 
					CHANNELS 3 Zrotation Yrotation Xrotation
					JOINT rForeArm
					{
						OFFSET -10.139888 0.000000 0.000000 
						CHANNELS 3 Yrotation Zrotation Xrotation
						JOINT rHand
						{
							OFFSET -8.370511 0.000000 0.000000 
							CHANNELS 3 Zrotation Yrotation Xrotation
							End Site
							{
								OFFSET -4.083176 0.000000 0.000000 
							}
						}
					}
				}
			}
		}
	}
	JOINT lThigh
	{
		OFFSET 5.308129 -1.633274 1.361059 
		CHANNELS 3 Xrotation Zrotation Yrotation
		JOINT lShin
		{
			OFFSET -2.041588 -20.007561 0.000000 
			CHANNELS 3 Xrotation Zrotation Yrotation
			JOINT lFoot
			{
				OFFSET 0.000000 -19.190928 -1.224953 
				CHANNELS 3 Xrotation Yrotation Zrotation
				End Site
				{
					OFFSET 0.000000 -2.449906 4.627600 
				}
			}
		}
	}
	JOINT rThigh
	{
		OFFSET -5.308129 -1.633274 1.361059 
		CHANNELS 3 Xrotation Zrotation Yrotation
		JOINT rShin
		{
			OFFSET 2.041588 -20.007561 0.000000 
			CHANNELS 3 Xrotation Zrotation Yrotation
			JOINT rFoot
			{
				OFFSET 0.000000 -19.190928 -1.224953 
				CHANNELS 3 Xrotation Yrotation Zrotation
				End Site
				{
					OFFSET 0.000000 -2.449906 4.627600 
				}
			}
		}
	}
}
MOTION
Frames: 18
Frame Time: 0.016667
-0.195391 48.456924 1.986202 -2.789880 0.849205 -1.767674 0.000000 0.000000 0.000000 -6.354625 1.328405 6.828177 9.887422 3.662081 0.225398 -9.676779 -5.004938 -15.206622 16.282730 27.809462 16.217058 -114.202744 -32.640297 3.671902 -30.631454 0.427700 36.941051 -2.542660 -0.881455 49.181866 -25.653566 -15.249312 16.943907 71.682175 14.326939 70.614853 9.637180 -9.569436 -12.354499 25.587793 2.373105 -9.315434 37.213902 0.147711 13.907717 12.824248 -4.518966 -1.021221 -3.572643 1.890308 -27.752447 -2.733255 -2.176852 0.582635 10.407136 4.166599 0.865351 -5.559325 -14.353154 29.534605 
-0.390770 48.567455 2.254589 -2.878448 0.829902 -1.181658 0.000000 0.000000 0.000000 -6.587769 1.493121 6.867727 9.913809 3.359356 0.196121 -9.864099 -5.039947 -15.706889 16.936823 27.541842 15.946643 -113.493240 -30.970110 3.257870 -29.709393 0.588041 38.945572 -2.180709 -0.198885 49.056824 -25.548439 -15.326149 16.935116 71.747765 15.753893 70.347000 9.725474 -9.400498 -12.500480 25.781244 2.902265 -9.156481 38.306255 0.733741 13.939730 12.398960 -4.432364 -0.960400 -2.545860 1.328890 -27.819736 -1.316758 -2.224414 0.527995 10.481750 4.243046 0.886529 -6.152985 -14.076346 28.477474 
-0.576297 48.698921 2.427359 -2.717139 1.025320 -0.673895 0.000000 0.000000 0.000000 -6.842997 1.560958 6.877758 9.770800 2.333979 0.127246 -10.066658 -4.874959 -15.919163 18.042503 26.339844 15.737992 -111.982994 -29.698833 2.414476 -29.020948 0.621961 42.412666 -2.832988 0.998812 48.817600 -24.928364 -16.116625 16.775776 72.724190 16.977026 70.641098 9.684950 -9.415556 -13.196564 25.917009 3.358995 -8.982899 38.285439 1.115028 14.063773 12.337027 -4.401958 -0.953148 -2.680928 1.291431 -27.928417 -0.243489 -2.376984 0.447730 10.529715 4.252625 0.920146 -6.906657 -13.850389 27.966103 
-0.761811 48.830379 2.600119 -2.562310 1.210932 -0.175742 0.000000 0.000000 0.000000 -7.097925 1.628758 6.897561 9.630030 1.318359 0.049040 -10.268504 -4.719853 -16.120996 19.123957 25.131302 15.555959 -110.522064 -28.409576 1.633934 -28.340422 0.710920 45.864414 -3.488371 2.197324 48.557274 -24.294868 -16.901566 16.625771 73.718468 18.200087 70.965355 9.634363 -9.430335 -13.902549 26.054775 3.810312 -8.819126 38.271011 1.494401 14.186974 12.274321 -4.374617 -0.935715 -2.814033 1.241216 -28.010393 0.798466 -2.529616 0.363253 10.578568 4.262183 0.924540 -7.673007 -13.584496 27.462521 
-0.905836 48.964890 2.689556 -2.209012 1.630841 0.273605 0.000000 0.000000 0.000000 -7.262561 1.715942 6.917379 9.199725 -0.371093 -0.078187 -10.310019 -4.352243 -16.191097 20.673010 23.367867 15.436764 -108.709099 -27.054361 0.618994 -28.263620 0.692884 49.960114 -4.811315 3.627323 48.170174 -23.077309 -18.503292 16.387203 75.308823 19.399511 71.599533 9.694164 -9.797150 -14.382685 25.947002 3.993405 -8.675245 37.592373 1.476209 14.308617 11.298421 -4.575993 -0.935461 -2.869721 2.412420 -28.475557 1.708452 -2.966539 0.207914 10.419060 4.264918 0.921951 -8.383319 -13.391639 27.838627 
-1.049853 49.099400 2.778985 -1.858889 2.050618 0.723242 0.000000 0.000000 0.000000 -7.427137 1.803118 6.937212 8.766442 -2.060536 -0.185778 -10.362882 -3.985101 -16.251423 22.207355 21.600470 15.367094 -106.939796 -25.672905 -0.320868 -28.187075 0.682339 54.044514 -6.154490 5.040643 47.749676 -21.846899 -20.097351 16.179472 76.927711 20.595665 72.275841 9.759706 -10.166381 -14.852760 25.849525 4.178452 -8.530615 36.923294 1.455480 14.429263 10.336373 -4.782425 -0.904597 -2.943795 3.556530 -28.931599 2.622430 -3.381062 0.027449 10.233486 4.252929 0.916825 -9.083366 -13.164337 28.245573 
-1.141807 49.233337 2.786603 -1.218368 2.665320 1.310357 0.000000 0.000000 0.000000 -7.668608 1.822468 6.946973 8.139217 -4.013600 -0.343009 -10.181734 -3.466672 -16.398396 24.024433 19.718636 15.368137 -105.215286 -24.157097 -1.304656 -28.335823 0.304964 56.272709 -6.888445 6.499965 47.480110 -20.120186 -22.159641 16.154018 78.400398 21.939583 72.787308 10.070227 -10.839166 -14.482733 25.507139 4.018520 -8.422920 35.030987 1.096365 14.615642 9.366038 -4.958031 -0.887111 -2.794834 5.146383 -29.121597 3.367276 -4.149105 -0.159373 9.742746 4.285280 0.852922 -9.447701 -13.021246 29.594374 
-1.233760 49.367275 2.794214 -0.575322 3.269694 1.898130 0.000000 0.000000 0.000000 -7.911567 1.832162 6.946973 7.510011 -5.976362 -0.472303 -9.996767 -2.939810 -16.536394 25.817503 17.838530 15.435740 -103.531570 -22.615753 -2.227221 -28.473436 -0.075621 58.501152 -7.632626 7.956522 47.207550 -18.357172 -24.211750 16.196970 79.897774 23.272699 73.331284 10.381886 -11.511783 -14.094789 25.172089 3.874335 -8.317564 33.147312 0.744269 14.826260 8.387478 -5.135508 -0.874920 -2.634230 6.753123 -29.331858 4.118890 -4.910230 -0.405227 9.246978 4.315566 0.807387 -9.818788 -12.867818 30.939684 
-1.311899 49.490181 2.729489 0.326834 3.726572 2.623075 0.000000 0.000000 0.000000 -8.304170 1.967754 6.976907 6.870602 -7.851121 -0.611799 -9.713306 -2.447592 -16.949791 27.663517 16.096113 15.606911 -101.812508 -21.095964 -3.209366 -28.464998 -0.941145 58.177139 -7.384780 9.206187 47.256180 -16.331247 -26.256517 16.563761 80.615456 24.841843 73.360756 10.962485 -12.427443 -12.730818 24.842876 3.410547 -8.198197 29.810951 0.538064 15.232109 8.330760 -5.208807 -0.884660 -2.780671 7.568071 -29.161135 4.657674 -5.517650 -0.600769 8.453646 4.294439 0.736446 -9.860412 -12.929649 32.563103 
-1.390037 49.613087 2.664754 1.219923 4.162827 3.348745 0.000000 0.000000 0.000000 -8.695439 2.113022 7.006890 6.229185 -9.735524 -0.743341 -9.439827 -1.948077 -17.364082 29.505054 14.355128 15.835033 -100.137390 -19.558237 -4.131234 -28.449905 -1.801924 57.854549 -7.135567 10.462532 47.317219 -14.257614 -28.283672 17.020496 81.350540 26.403509 73.417519 11.562166 -13.332735 -11.356747 24.511848 2.943454 -8.085793 26.462404 0.362461 15.645925 8.285991 -5.279515 -0.903862 -2.914563 8.369531 -28.981407 5.189112 -6.106028 -0.811048 7.668615 4.251602 0.694762 -9.893785 -12.995723 34.182369 
-1.465308 49.691631 2.497535 2.799095 4.517901 4.408542 0.000000 0.000000 0.000000 -9.690342 2.122714 7.006891 5.737054 -11.356156 -0.867587 -9.198513 -1.653015 -18.025599 31.128744 13.026052 16.073793 -98.466553 -17.948572 -5.129205 -28.433336 -3.107272 56.004765 -6.674067 11.275152 47.505253 -12.257773 -29.155773 17.650446 81.337868 28.275999 72.971436 12.209003 -14.238744 -9.174979 24.319784 2.446089 -7.921296 21.268850 0.078942 16.064541 8.916718 -4.984960 -0.891081 -3.413639 7.828868 -28.355267 4.926084 -6.634197 -0.941448 6.870686 4.225516 0.594453 -9.987532 -13.648989 34.734108 
-1.540575 49.770184 2.330314 4.380715 4.850892 5.479011 0.000000 0.000000 0.000000 -10.683685 2.142055 7.016650 5.238010 -12.986475 -0.973510 -8.967283 -1.350725 -18.677315 32.752235 11.699523 16.347437 -96.834137 -16.325596 -6.064835 -28.455465 -4.399616 54.157932 -6.195928 12.090877 47.706074 -10.228431 -30.000000 18.313988 81.312996 30.128935 72.524948 12.892239 -15.117126 -6.986719 24.133780 1.951089 -7.752734 16.071898 -0.155597 16.521759 9.565892 -4.694547 -0.846844 -3.906038 7.239563 -27.742197 4.652654 -7.150808 -1.088175 6.080984 4.186908 0.504575 -10.054685 -14.304479 35.294815 
-1.587322 49.825802 2.138845 5.510497 5.315872 6.640671 0.000000 0.000000 0.000000 -11.178325 1.870938 6.947291 4.837531 -14.343267 -1.080086 -8.684147 -1.005600 -19.143732 34.071037 10.768405 16.578220 -95.306610 -14.763032 -6.989340 -28.580843 -5.786932 52.387173 -6.065552 12.392897 47.803425 -8.496394 -30.000000 19.056696 80.707680 32.139065 71.730438 13.239671 -15.605891 -5.297650 23.924566 1.469461 -7.638904 11.077332 -0.817806 16.512171 10.071250 -4.168649 -0.762725 -4.382295 5.821723 -27.233513 4.862775 -7.812410 -1.304599 5.310457 4.226461 0.467660 -10.249975 -15.352223 34.986877 
-1.634067 49.881428 1.947379 6.638177 5.756970 7.813334 0.000000 0.000000 0.000000 -11.663435 1.590011 6.887521 4.439556 -15.699975 -1.177749 -8.396942 -0.662384 -19.601068 35.375828 9.834470 16.822832 -93.826996 -13.190376 -7.866784 -28.744818 -7.175866 50.623535 -5.924506 12.701704 47.912106 -6.764153 -30.000000 19.799536 80.047966 34.158024 70.880005 13.609217 -16.075787 -3.598794 23.711191 1.001384 -7.526073 6.082607 -1.483622 16.577955 10.604186 -3.641674 -0.694757 -4.837646 4.380634 -26.746214 5.046440 -8.462961 -1.513486 4.540609 4.266272 0.420493 -10.449660 -16.423967 34.661522 
-1.671567 49.929256 1.768185 7.179505 6.190642 8.556987 0.000000 0.000000 0.000000 -11.519479 1.338101 6.828178 3.985363 -16.949162 -1.278702 -8.043740 -0.119735 -19.414122 36.602943 9.151725 16.997845 -92.420860 -11.625793 -8.759902 -28.979431 -8.317181 49.507587 -6.036500 12.695134 47.906788 -5.046443 -30.000000 20.709969 79.160645 36.352825 69.887161 13.215686 -16.021515 -3.358068 23.323065 0.458629 -7.561331 2.001328 -2.176695 16.368994 10.656105 -3.259023 -0.631165 -4.975309 3.144670 -26.750942 5.711553 -8.964145 -1.681766 3.914294 4.294139 0.393436 -10.690710 -17.263821 33.659943 
-1.709067 49.977085 1.588993 7.714335 6.631209 9.301111 0.000000 0.000000 0.000000 -11.376152 1.076431 6.768947 3.523015 -18.208046 -1.368046 -7.677243 0.424158 -19.229053 37.827339 8.484015 17.192366 -91.055511 -10.040879 -9.602877 -29.244658 -9.448814 48.382729 -6.155692 12.682207 47.903881 -3.328403 -30.000000 21.615385 78.192001 38.540146 68.801323 12.832563 -15.961501 -3.116229 22.933990 -0.080905 -7.598095 -2.079116 -2.890244 16.208736 10.708642 -2.901268 -0.558771 -5.111916 1.891700 -26.734354 6.391747 -9.446543 -1.854840 3.275731 4.318130 0.355552 -10.940751 -18.089235 32.662991 
-1.735473 50.008991 1.417518 8.042305 7.067898 9.635011 0.000000 0.000000 0.000000 -11.141603 0.756518 6.699922 3.132801 -19.213064 -1.448493 -7.476682 1.078572 -19.271013 38.871193 8.072392 17.255789 -89.951462 -8.331051 -10.378171 -29.568087 -10.009126 47.755558 -6.339407 12.591074 47.850018 -1.966841 -30.000000 22.427259 77.241013 40.941204 67.693077 11.679684 -15.233943 -4.284009 22.195251 -0.568603 -7.815098 -5.739505 -3.495971 15.917946 10.592502 -2.647745 -0.522728 -4.904493 1.343001 -27.144161 7.011414 -9.843501 -1.991200 3.026001 4.342924 0.346308 -11.106231 -18.607361 31.426678 
-1.761876 50.040894 1.246049 8.377143 7.513117 9.969494 0.000000 0.000000 0.000000 -10.914847 0.446205 6.640879 2.742009 -20.218077 -1.520159 -7.277112 1.732657 -19.315769 39.921768 7.657671 17.331177 -88.870827 -6.607316 -11.109056 -29.902018 -10.535373 47.118301 -6.532202 12.492138 47.789425 -0.612658 -30.000000 23.239777 76.197441 43.316730 66.491127 10.555492 -14.472744 -5.428487 21.468952 -1.057056 -8.029737 -9.391693 -4.101087 15.648187 10.473595 -2.432698 -0.480230 -4.736048 0.798233 -27.552624 7.644688 -10.223518 -2.121215 2.759498 4.367553 0.355722 -11.282168 -19.160225 30.200197 
